<?xml version="1.0" encoding="utf-8"?>
<!-- Generator: Adobe Illustrator 22.0.0, SVG Export Plug-In . SVG Version: 6.00 Build 0)  -->
<svg version="1.1" id="Layer_1" xmlns="http://www.w3.org/2000/svg" xmlns:xlink="http://www.w3.org/1999/xlink" x="0px" y="0px"
	 viewBox="0 0 512 512" style="enable-background:new 0 0 512 512;" xml:space="preserve">
<style type="text/css">
	.st0{fill:#F89725;}
	.st1{fill:#A9CF38;}
	.st2{fill:#282923;}
</style>
<g>
	<path class="st0" d="M422.3,306.1l-11.7,9.9l-10.9,8.8v34.9c0,14.4-1.2,26.5-3.6,36.3c-2.4,9.8-6.4,17.5-11.9,23.3
		c-5.5,5.7-13,9.8-22.4,12.2c-9.4,2.4-21.3,3.6-35.7,3.6H185.9c-14.4,0-26.3-1.2-35.7-3.6c-9.4-2.4-16.9-6.5-22.4-12.2
		c-5.5-5.7-9.5-13.5-11.9-23.3c-2.4-9.8-3.6-21.9-3.6-36.3v-83.1c0-14.4,1.2-26.5,3.6-36.3c2.4-9.8,6.4-17.5,11.9-23.3
		c5.5-5.7,13-9.8,22.4-12.2c9.4-2.4,21.3-3.6,35.7-3.6h83.4l4.1-12.3c7.8-23,18.3-44.7,31.1-64.7h-122c-28.1,0-51.9,2.7-71.4,8
		c-19.6,5.4-35.5,13.8-47.9,25.5c-12.4,11.6-21.4,26.7-27.1,45.1c-5.7,18.5-8.6,41-8.6,67.6v95.3c0,26.6,2.9,49.2,8.6,67.8
		c5.7,18.6,14.8,33.8,27.1,45.4c12.4,11.6,28.3,20,47.9,25.2c19.6,5.2,43.4,7.8,71.4,7.8h146.7c28.1,0,52-2.6,71.7-7.8
		c19.8-5.2,35.8-13.6,48.2-25.2c12.4-11.6,21.3-26.8,26.9-45.4c5.5-18.6,8.3-41.3,8.3-67.8v-95.3c0-12.3-0.6-23.7-1.8-34.2
		C466.4,262.2,446.2,285.9,422.3,306.1z"/>
	<path class="st1" d="M301.4,207.4c2.5,5.2,4.5,10.5,6.6,15.8c7.7,19.7,12.6,40.1,15.1,61c23-1.5,46.2-1.4,68.9,0.6
		c71-60.1,104.9-153.3,88.5-244.8c-40.7,11.1-78.1,31.8-109.2,60.6C339.1,129.3,315.2,166.6,301.4,207.4L301.4,207.4z"/>
	<path class="st2" d="M264.6,95.9c-15.9-52-46.1-85.7-56.4-95.9l-17.1,9.8C207,22,239.5,51.3,259.5,97.9
		C261.2,97.4,262.9,96.7,264.6,95.9z"/>
</g>
</svg>
