<svg xmlns="http://www.w3.org/2000/svg" viewBox="0 0 187.81 158.84">
    <defs>
        <style>.cls-1{fill:#9c3;}.cls-2{fill:#f90;}</style>
    </defs>
    <g>
        <g>
            <path class="cls-1"
                  d="M179.28,0H143.74a4.84,4.84,0,0,0-4.34,2.67L123.55,34a4.85,4.85,0,0,0,.6,5.28l23.93,28.65a3,3,0,0,0,5-.58l30.5-60.28A4.86,4.86,0,0,0,179.28,0Z"/>
            <path class="cls-2"
                  d="M179.94,31.72l-24.5,48.43a6.47,6.47,0,0,0-.69,2.93V96.44a66.26,66.26,0,0,1-1.41,14.86,20.75,20.75,0,0,1-4.65,9.53,17.78,17.78,0,0,1-8.75,5A54.73,54.73,0,0,1,126,127.3H61.81a54.78,54.78,0,0,1-13.94-1.48,17.78,17.78,0,0,1-8.75-5,20.75,20.75,0,0,1-4.65-9.53,66.32,66.32,0,0,1-1.4-14.86v-34a66.38,66.38,0,0,1,1.4-14.86A20.8,20.8,0,0,1,39.12,38a17.85,17.85,0,0,1,8.75-5,54.78,54.78,0,0,1,13.94-1.48h51.42A4.21,4.21,0,0,0,117,29.23L130,3.6A2.45,2.45,0,0,0,127.79.05c-15,0-67.28,0-67.28,0Q44.09,0,32.63,3.29A42.93,42.93,0,0,0,13.94,13.73,42.11,42.11,0,0,0,3.35,32.22Q0,43.58,0,59.91v39q0,16.34,3.35,27.79a42.16,42.16,0,0,0,10.59,18.61,42,42,0,0,0,18.69,10.32q11.46,3.18,27.88,3.18H127.3q16.42,0,28-3.18t18.8-10.32a41.44,41.44,0,0,0,10.48-18.61q3.24-11.46,3.24-27.79v-39q0-16.35-3.24-27.69l0-.06A2.49,2.49,0,0,0,179.94,31.72Z"/>
        </g>
    </g>
</svg>